<svg xmlns="http://www.w3.org/2000/svg" xmlns:xlink="http://www.w3.org/1999/xlink" id="visual" viewBox="0 0 900 600" width="900" height="600" version="1.1">
  <path d="M0 55L13.7 70C27.3 85 54.7 115 82 115C109.3 115 136.7 85 163.8 82C191 79 218 103 245.2 124C272.3 145 299.7 163 327 151C354.3 139 381.7 97 409 76C436.3 55 463.7 55 491 64C518.3 73 545.7 91 573 104C600.3 117 627.7 125 654.8 120C682 115 709 97 736.2 87C763.3 77 790.7 75 818 79C845.3 83 872.7 93 886.3 98L900 103L900 0L886.3 0C872.7 0 845.3 0 818 0C790.7 0 763.3 0 736.2 0C709 0 682 0 654.8 0C627.7 0 600.3 0 573 0C545.7 0 518.3 0 491 0C463.7 0 436.3 0 409 0C381.7 0 354.3 0 327 0C299.7 0 272.3 0 245.2 0C218 0 191 0 163.8 0C136.7 0 109.3 0 82 0C54.7 0 27.3 0 13.7 0L0 0Z" fill="#955ad6" />
  <path d="M0 217L13.7 234C27.3 251 54.7 285 82 292C109.3 299 136.7 279 163.8 261C191 243 218 227 245.2 253C272.3 279 299.7 347 327 354C354.3 361 381.7 307 409 280C436.3 253 463.7 253 491 269C518.3 285 545.7 317 573 322C600.3 327 627.7 305 654.8 295C682 285 709 287 736.2 276C763.3 265 790.7 241 818 245C845.3 249 872.7 281 886.3 297L900 313L900 101L886.3 96C872.7 91 845.3 81 818 77C790.7 73 763.3 75 736.2 85C709 95 682 113 654.8 118C627.7 123 600.3 115 573 102C545.7 89 518.3 71 491 62C463.7 53 436.3 53 409 74C381.7 95 354.3 137 327 149C299.7 161 272.3 143 245.2 122C218 101 191 77 163.8 80C136.7 83 109.3 113 82 113C54.7 113 27.3 83 13.7 68L0 53Z" fill="#813dcd" />
  <path d="M0 307L13.7 323C27.3 339 54.7 371 82 372C109.3 373 136.7 343 163.8 328C191 313 218 313 245.2 336C272.3 359 299.7 405 327 409C354.3 413 381.7 375 409 352C436.3 329 463.7 321 491 335C518.3 349 545.7 385 573 391C600.3 397 627.7 373 654.8 366C682 359 709 369 736.2 359C763.3 349 790.7 319 818 316C845.3 313 872.7 337 886.3 349L900 361L900 311L886.3 295C872.7 279 845.3 247 818 243C790.7 239 763.3 263 736.2 274C709 285 682 283 654.8 293C627.7 303 600.3 325 573 320C545.7 315 518.3 283 491 267C463.7 251 436.3 251 409 278C381.7 305 354.3 359 327 352C299.7 345 272.3 277 245.2 251C218 225 191 241 163.8 259C136.7 277 109.3 297 82 290C54.7 283 27.3 249 13.7 232L0 215Z" fill="#6b17c3" />
  <path d="M0 487L13.7 494C27.3 501 54.7 515 82 522C109.3 529 136.7 529 163.8 527C191 525 218 521 245.2 525C272.3 529 299.7 541 327 536C354.3 531 381.7 509 409 496C436.3 483 463.7 479 491 489C518.3 499 545.7 523 573 530C600.3 537 627.7 527 654.8 524C682 521 709 525 736.2 522C763.3 519 790.7 509 818 512C845.3 515 872.7 531 886.3 539L900 547L900 359L886.3 347C872.7 335 845.3 311 818 314C790.7 317 763.3 347 736.2 357C709 367 682 357 654.8 364C627.7 371 600.3 395 573 389C545.7 383 518.3 347 491 333C463.7 319 436.3 327 409 350C381.7 373 354.3 411 327 407C299.7 403 272.3 357 245.2 334C218 311 191 311 163.8 326C136.7 341 109.3 371 82 370C54.7 369 27.3 337 13.7 321L0 305Z" fill="#5c16a9" />
  <path d="M0 601L13.7 601C27.3 601 54.7 601 82 601C109.3 601 136.7 601 163.8 601C191 601 218 601 245.2 601C272.3 601 299.7 601 327 601C354.3 601 381.7 601 409 601C436.3 601 463.7 601 491 601C518.3 601 545.7 601 573 601C600.3 601 627.7 601 654.8 601C682 601 709 601 736.2 601C763.3 601 790.7 601 818 601C845.3 601 872.7 601 886.3 601L900 601L900 545L886.3 537C872.7 529 845.3 513 818 510C790.7 507 763.3 517 736.2 520C709 523 682 519 654.8 522C627.7 525 600.3 535 573 528C545.7 521 518.3 497 491 487C463.7 477 436.3 481 409 494C381.7 507 354.3 529 327 534C299.7 539 272.3 527 245.2 523C218 519 191 523 163.8 525C136.7 527 109.3 527 82 520C54.7 513 27.3 499 13.7 492L0 485Z" fill="#4e148f" />
</svg>